<svg xmlns="http://www.w3.org/2000/svg" viewBox="0 0 32 32">
  <rect width="32" height="32" rx="7.5" fill="#161d27"/>
  <rect x="0.5" y="0.5" width="31" height="31" rx="7" fill="none" stroke="#6cb4ac" stroke-opacity="0.35"/>
  <!-- steam -->
  <g fill="none" stroke="#6cb4ac" stroke-width="1.5" stroke-linecap="round" opacity="0.9">
    <path d="M12.5 5.5c-1.3 1.1-1.3 2.2 0 3.3s1.3 2.2 0 3.3"/>
    <path d="M18 5.5c-1.3 1.1-1.3 2.2 0 3.3s1.3 2.2 0 3.3"/>
  </g>
  <!-- cup body -->
  <path d="M7 15h13v3.5a6.5 6.5 0 0 1-6.5 6.5h0A6.5 6.5 0 0 1 7 18.5z" fill="#6cb4ac"/>
  <!-- handle -->
  <path d="M20 16.2h2.6a3.3 3.3 0 0 1 0 6.6H20" fill="none" stroke="#6cb4ac" stroke-width="2.2"/>
  <!-- saucer -->
  <rect x="6" y="26.6" width="16" height="2" rx="1" fill="#6cb4ac" opacity="0.55"/>
</svg>
